<svg width="16" height="16" viewBox="0 0 16 16" fill="none" xmlns="http://www.w3.org/2000/svg">
<path d="M2.75 10.25H2C1.60218 10.25 1.22064 10.092 0.93934 9.81066C0.658035 9.52935 0.5 9.14782 0.5 8.75V2C0.5 1.60218 0.658035 1.22064 0.93934 0.93934C1.22064 0.658035 1.60218 0.5 2 0.5H8.75C9.14782 0.5 9.52935 0.658035 9.81066 0.93934C10.092 1.22064 10.25 1.60218 10.25 2V2.75M7.25 5.75H14C14.8284 5.75 15.5 6.42157 15.5 7.25V14C15.5 14.8284 14.8284 15.5 14 15.5H7.25C6.42157 15.5 5.75 14.8284 5.75 14V7.25C5.75 6.42157 6.42157 5.75 7.25 5.75Z" stroke="#97A1D7" stroke-linecap="round" stroke-linejoin="round"/>
</svg>
