<svg fill="none" height="16" viewBox="0 0 14 16" width="14" xmlns="http://www.w3.org/2000/svg"><path d="m4.72667 9.03542 4.55333 2.72918m-.00667-7.52918-4.54666 2.72915m8.27333-3.76457c0 1.13612-.8954 2.05714-2 2.05714-1.10457 0-2-.92102-2-2.05714 0-1.13613.89543-2.05715 2-2.05715 1.1046 0 2 .92102 2 2.05715zm-8 4.8c0 1.13612-.89543 2.0571-2 2.0571s-2-.92098-2-2.0571c0-1.13613.89543-2.05715 2-2.05715s2 .92102 2 2.05715zm8 4.8c0 1.1361-.8954 2.0571-2 2.0571-1.10457 0-2-.921-2-2.0571s.89543-2.0571 2-2.0571c1.1046 0 2 .921 2 2.0571z" stroke="#97a1d7" stroke-linecap="round" stroke-linejoin="round"/></svg>