<svg width="16" height="16" viewBox="0 0 16 16" fill="none" xmlns="http://www.w3.org/2000/svg">
<path d="M5.5 13V2.16667L15.5 0.5V11.3333" stroke="#495ECA" stroke-linecap="round" stroke-linejoin="round"/>
<path d="M3 15.5C4.38071 15.5 5.5 14.3807 5.5 13C5.5 11.6193 4.38071 10.5 3 10.5C1.61929 10.5 0.5 11.6193 0.5 13C0.5 14.3807 1.61929 15.5 3 15.5Z" stroke="#495ECA" stroke-linecap="round" stroke-linejoin="round"/>
<path d="M13 13.8333C14.3807 13.8333 15.5 12.714 15.5 11.3333C15.5 9.95262 14.3807 8.83334 13 8.83334C11.6193 8.83334 10.5 9.95262 10.5 11.3333C10.5 12.714 11.6193 13.8333 13 13.8333Z" stroke="#495ECA" stroke-linecap="round" stroke-linejoin="round"/>
</svg>
