<svg fill="none" height="18" viewBox="0 0 18 18" width="18" xmlns="http://www.w3.org/2000/svg"><g stroke="currentColor" stroke-linecap="round" stroke-linejoin="round"><path d="m7.33325 9.83333c.35788.47847.81447.87427 1.33879 1.16077.52433.2865 1.10413.4568 1.70006.4995.596.0427 1.1941-.0433 1.7539-.2521s1.0682-.5356 1.4906-.9582l2.5-2.49997c.759-.78584 1.179-1.83835 1.1695-2.93084s-.4477-2.13754-1.2203-2.91007c-.7725-.77253-1.8176-1.210738-2.91-1.220232-1.0925-.009493-2.145.410482-2.9309 1.169472l-1.43331 1.425"/><path d="m10.6666 8.16667c-.3579-.47844-.81448-.87432-1.3388-1.16079-.52433-.28646-1.10413-.45681-1.70009-.49949-.59595-.04268-1.19411.0433-1.75391.25212-.5598.20883-1.06814.5356-1.49054.95816l-2.5 2.50003c-.759.7858-1.178973 1.8383-1.169479 2.9308.009493 1.0925.447699 2.1375 1.220229 2.9101.77254.7725 1.81759 1.2107 2.91007 1.2202 1.09249.0095 2.145-.4105 2.93084-1.1695l1.425-1.425"/></g></svg>