<svg width="12" height="17" viewBox="0 0 12 17" fill="none" xmlns="http://www.w3.org/2000/svg">
<path d="M10.5455 7.13636V8.5C10.5455 9.76581 10.0426 10.9798 9.14755 11.8748C8.25249 12.7699 7.03853 13.2727 5.77273 13.2727M5.77273 13.2727C4.50692 13.2727 3.29296 12.7699 2.3979 11.8748C1.50284 10.9798 1 9.76581 1 8.5V7.13636M5.77273 13.2727V16M3.04545 16H8.5M5.77273 1C5.23024 1 4.70997 1.2155 4.32637 1.5991C3.94278 1.9827 3.72727 2.50297 3.72727 3.04545V8.5C3.72727 9.04249 3.94278 9.56276 4.32637 9.94636C4.70997 10.33 5.23024 10.5455 5.77273 10.5455C6.31522 10.5455 6.83549 10.33 7.21908 9.94636C7.60268 9.56276 7.81818 9.04249 7.81818 8.5V3.04545C7.81818 2.50297 7.60268 1.9827 7.21908 1.5991C6.83549 1.2155 6.31522 1 5.77273 1Z" stroke="#495ECA" stroke-linecap="round" stroke-linejoin="round"/>
</svg>
