<svg width="14" height="16" viewBox="0 0 14 16" fill="none" xmlns="http://www.w3.org/2000/svg">
<path d="M4.72667 9.03542L9.28 11.7646M9.27333 4.23542L4.72667 6.96457M13 3.2C13 4.33612 12.1046 5.25714 11 5.25714C9.89543 5.25714 9 4.33612 9 3.2C9 2.06387 9.89543 1.14285 11 1.14285C12.1046 1.14285 13 2.06387 13 3.2ZM5 8C5 9.13612 4.10457 10.0571 3 10.0571C1.89543 10.0571 1 9.13612 1 8C1 6.86387 1.89543 5.94285 3 5.94285C4.10457 5.94285 5 6.86387 5 8ZM13 12.8C13 13.9361 12.1046 14.8571 11 14.8571C9.89543 14.8571 9 13.9361 9 12.8C9 11.6639 9.89543 10.7429 11 10.7429C12.1046 10.7429 13 11.6639 13 12.8Z" stroke="#97A1D7" stroke-linecap="round" stroke-linejoin="round"/>
</svg>
