<svg width="16" height="16" viewBox="0 0 16 16" fill="none" xmlns="http://www.w3.org/2000/svg">
<path d="M7.26201 2.47597H2.39156C2.02249 2.47597 1.66855 2.62258 1.40758 2.88355C1.14661 3.14452 1 3.49847 1 3.86753V13.6084C1 13.9775 1.14661 14.3315 1.40758 14.5924C1.66855 14.8534 2.02249 15 2.39156 15H12.1325C12.5015 15 12.8555 14.8534 13.1164 14.5924C13.3774 14.3315 13.524 13.9775 13.524 13.6084V8.73799M12.4804 1.4323C12.7572 1.1555 13.1326 1 13.524 1C13.9155 1 14.2909 1.1555 14.5677 1.4323C14.8445 1.7091 15 2.08452 15 2.47597C15 2.86742 14.8445 3.24284 14.5677 3.51964L7.95779 10.1295L5.17468 10.8253L5.87046 8.04221L12.4804 1.4323Z" stroke="#495ECA" stroke-linecap="round" stroke-linejoin="round"/>
</svg>
