<svg fill="none" height="16" viewBox="0 0 18 16" width="18" xmlns="http://www.w3.org/2000/svg"><g stroke="#495eca" stroke-linecap="round" stroke-linejoin="round"><path d="m.666667.5h5.000003c.88405 0 1.7319.351189 2.35702.97631.62512.62512.97631 1.47297.97631 2.35702v11.66667c0-.663-.26339-1.2989-.73223-1.7678-.46884-.4688-1.10473-.7322-1.76777-.7322h-5.833333z"/><path d="m17.3333.5h-5c-.884 0-1.7319.351189-2.35699.97631-.62512.62512-.97631 1.47297-.97631 2.35702v11.66667c0-.663.26339-1.2989.73223-1.7678.46887-.4688 1.10477-.7322 1.76777-.7322h5.8333z"/></g></svg>