<svg width="18" height="16" viewBox="0 0 18 16" fill="none" xmlns="http://www.w3.org/2000/svg">
<path d="M0.666667 0.5H5.66667C6.55072 0.5 7.39857 0.851189 8.02369 1.47631C8.64881 2.10143 9 2.94928 9 3.83333V15.5C9 14.837 8.73661 14.2011 8.26777 13.7322C7.79893 13.2634 7.16304 13 6.5 13H0.666667V0.5Z" stroke="#495ECA" stroke-linecap="round" stroke-linejoin="round"/>
<path d="M17.3333 0.5H12.3333C11.4493 0.5 10.6014 0.851189 9.97631 1.47631C9.35119 2.10143 9 2.94928 9 3.83333V15.5C9 14.837 9.26339 14.2011 9.73223 13.7322C10.2011 13.2634 10.837 13 11.5 13H17.3333V0.5Z" stroke="#495ECA" stroke-linecap="round" stroke-linejoin="round"/>
</svg>
