<svg width="24" height="24" viewBox="0 0 24 24" fill="none" xmlns="http://www.w3.org/2000/svg">
<rect width="24" height="24" rx="12" fill="#1C1A22"/>
<path d="M11.6465 8.4647L12.884 7.22726C13.1393 6.9717 13.4425 6.76896 13.7762 6.6306C14.1099 6.49224 14.4675 6.42098 14.8288 6.4209C15.19 6.42081 15.5478 6.4919 15.8815 6.63011C16.2153 6.76831 16.5185 6.97092 16.774 7.22635C17.0294 7.48179 17.232 7.78505 17.3702 8.11881C17.5084 8.45258 17.5795 8.8103 17.5794 9.17154C17.5793 9.53278 17.5081 9.89047 17.3697 10.2242C17.2314 10.5579 17.0286 10.861 16.7731 11.1163L15.0053 12.8841C14.7499 13.1395 14.4468 13.342 14.1131 13.4802C13.7795 13.6184 13.4219 13.6896 13.0608 13.6896C12.6996 13.6896 12.342 13.6184 12.0084 13.4802C11.6747 13.342 11.3716 13.1395 11.1162 12.8841" stroke="white" stroke-linecap="round" stroke-linejoin="round"/>
<path d="M12.3538 15.5354L11.1163 16.7729C10.861 17.0284 10.5579 17.2312 10.2242 17.3695C9.89047 17.5079 9.53278 17.5791 9.17154 17.5792C8.8103 17.5793 8.45258 17.5082 8.11881 17.37C7.78505 17.2318 7.48179 17.0292 7.22635 16.7738C6.97092 16.5183 6.76831 16.2151 6.63011 15.8813C6.4919 15.5475 6.42081 15.1898 6.4209 14.8286C6.42098 14.4673 6.49224 14.1096 6.6306 13.776C6.76896 13.4423 6.9717 13.1391 7.22726 12.8838L8.99503 11.116C9.25039 10.8606 9.55355 10.6581 9.88719 10.5199C10.2208 10.3817 10.5784 10.3105 10.9396 10.3105C11.3007 10.3105 11.6583 10.3817 11.992 10.5199C12.3256 10.6581 12.6288 10.8606 12.8841 11.116" stroke="white" stroke-linecap="round" stroke-linejoin="round"/>
</svg>
