<svg width="36" height="36" viewBox="0 0 36 36" fill="none" xmlns="http://www.w3.org/2000/svg">
<path fill-rule="evenodd" clip-rule="evenodd" d="M10 0C4.47715 0 0 4.47715 0 10V26C0 31.5228 4.47715 36 10 36H26C31.5228 36 36 31.5228 36 26V10C36 4.47715 31.5228 0 26 0H10ZM17.7361 15.0749C17.7361 16.3287 17.1597 17.1342 16.0556 17.6665C17.5694 18.0973 18.3021 19.2495 18.3021 20.8079C18.3021 23.3295 16.2014 24.4116 13.9653 24.4116H8V12H13.8021C15.9097 12 17.7361 12.6024 17.7361 15.0749ZM13.2431 14.1188H10.7049V17.0151H13.4479C14.4132 17.0151 15.0972 16.5913 15.0972 15.5372C15.0972 14.3955 14.2188 14.1188 13.2431 14.1188ZM10.7049 22.3033H13.5972C14.6979 22.3033 15.5972 21.9111 15.5972 20.6573C15.5972 19.386 14.8438 18.8852 13.6528 18.8852H10.7049V22.3033ZM21.0556 13.8737H26.0451V12.6514H21.0556V13.8737ZM23.6632 15.173C26.4583 15.173 28 17.3898 28 20.048C28 20.2055 27.9896 20.3631 27.9792 20.5102H21.5521C21.5521 21.9496 22.3056 22.7971 23.7396 22.7971C24.4826 22.7971 25.441 22.3909 25.6736 21.6239H27.8333C27.1701 23.6797 25.7917 24.6463 23.6632 24.6463C20.8507 24.6463 19.1042 22.7271 19.1042 19.9289C19.1042 17.2322 20.9479 15.173 23.6632 15.173ZM23.5868 17.0361C22.4132 17.0361 21.6354 17.7751 21.5556 18.9553H25.5382C25.434 17.7645 24.816 17.0361 23.5868 17.0361Z" fill="currentColor"/>
</svg>
