<svg width="36" height="36" viewBox="0 0 36 36" fill="none" xmlns="http://www.w3.org/2000/svg">
<path fill-rule="evenodd" clip-rule="evenodd" d="M10 0C4.47715 0 0 4.47715 0 10V26C0 31.5228 4.47715 36 10 36H26C31.5228 36 36 31.5228 36 26V10C36 4.47715 31.5228 0 26 0H10ZM8 18C8 12.486 12.486 8 18 8C23.514 8 28 12.486 28 18C28 23.514 23.514 28 18 28C12.486 28 8 23.514 8 18ZM26.5405 17.9323C26.5217 15.9162 25.8013 14.065 24.6117 12.6115C24.4316 12.8551 23.0003 14.69 19.8422 15.9794C20.142 16.5931 20.3609 17.0912 20.5929 17.6574C23.435 17.3 26.2589 17.8727 26.5405 17.9323ZM19.1855 14.7092C22.2227 13.5708 23.5085 11.8426 23.6621 11.6238C21.5615 9.76012 18.7071 9.05597 15.9984 9.70891C16.2345 10.025 17.7858 12.1376 19.1855 14.7092ZM17.5354 15.2229C16.1201 12.7071 14.5938 10.5919 14.3686 10.2831C11.979 11.4102 10.1927 13.6131 9.63887 16.2636C10.0209 16.2687 13.54 16.284 17.5354 15.2229ZM9.46282 17.752C9.4602 17.8388 9.45847 17.9257 9.45847 18.013C9.45847 20.2069 10.2901 22.2099 11.6543 23.7242C13.0389 21.354 15.8451 18.856 18.9338 17.986C18.7194 17.5008 18.4858 17.015 18.2413 16.5365C13.9757 17.813 9.83653 17.7597 9.46282 17.752ZM19.5144 19.3984C16.0708 20.5731 13.6494 22.9275 12.7571 24.7515C15.2875 26.7246 18.59 27.0456 21.3365 25.8757C21.2095 25.1263 20.7135 22.5146 19.5144 19.3984ZM21.1131 19.0037C22.2303 22.0737 22.6849 24.5742 22.7725 25.0937C24.6887 23.798 26.0528 21.7455 26.4335 19.3688C26.1413 19.2766 23.7897 18.5752 21.1131 19.0037Z" fill="currentColor"/>
</svg>
