<svg width="36" height="36" viewBox="0 0 36 36" fill="none" xmlns="http://www.w3.org/2000/svg">
<path fill-rule="evenodd" clip-rule="evenodd" d="M10 0C4.47715 0 0 4.47715 0 10V26C0 31.5228 4.47715 36 10 36H26C31.5228 36 36 31.5228 36 26V10C36 4.47715 31.5228 0 26 0H10ZM23.5652 15.6305L23.0098 19.25H20.0922V28H16.1793V19.25H13V15.6305H16.1793V12.8719C16.1793 9.73359 18.0488 8 20.909 8C22.2789 8 23.7117 8.24453 23.7117 8.24453V11.3262H22.1328C20.5773 11.3262 20.0922 12.2914 20.0922 13.2816V15.6305H23.5652Z" fill="#495ECA"/>
</svg>
