<svg width="31" height="32" viewBox="0 0 31 32" fill="none" xmlns="http://www.w3.org/2000/svg">
<path d="M15.5069 7.91407C11.106 7.91407 7.55625 11.5211 7.55625 15.993C7.55625 20.4648 11.106 24.0719 15.5069 24.0719C19.9078 24.0719 23.4576 20.4648 23.4576 15.993C23.4576 11.5211 19.9078 7.91407 15.5069 7.91407ZM15.5069 21.2453C12.6629 21.2453 10.3379 18.8898 10.3379 15.993C10.3379 13.0961 12.656 10.7406 15.5069 10.7406C18.3578 10.7406 20.6759 13.0961 20.6759 15.993C20.6759 18.8898 18.3509 21.2453 15.5069 21.2453V21.2453ZM25.6373 7.5836C25.6373 8.63125 24.8069 9.46797 23.7828 9.46797C22.7518 9.46797 21.9283 8.62422 21.9283 7.5836C21.9283 6.54297 22.7587 5.69922 23.7828 5.69922C24.8069 5.69922 25.6373 6.54297 25.6373 7.5836ZM30.9031 9.4961C30.7855 6.97188 30.2181 4.73594 28.3982 2.89375C26.5853 1.05157 24.3848 0.475006 21.9007 0.348444C19.3404 0.200787 11.6665 0.200787 9.10625 0.348444C6.62902 0.467975 4.42858 1.04454 2.60871 2.88672C0.78885 4.72891 0.228359 6.96485 0.103806 9.48906C-0.0415065 12.0906 -0.0415065 19.8883 0.103806 22.4898C0.22144 25.0141 0.78885 27.25 2.60871 29.0922C4.42858 30.9344 6.6221 31.5109 9.10625 31.6375C11.6665 31.7851 19.3404 31.7851 21.9007 31.6375C24.3848 31.518 26.5853 30.9414 28.3982 29.0922C30.2111 27.25 30.7786 25.0141 30.9031 22.4898C31.0484 19.8883 31.0484 12.0977 30.9031 9.4961V9.4961ZM27.5955 25.2812C27.0558 26.6594 26.0109 27.7211 24.6478 28.2766C22.6065 29.0992 17.7627 28.9094 15.5069 28.9094C13.2511 28.9094 8.40045 29.0922 6.36608 28.2766C5.00983 27.7281 3.96496 26.6664 3.41831 25.2812C2.60871 23.207 2.79554 18.2852 2.79554 15.993C2.79554 13.7008 2.61563 8.77188 3.41831 6.70469C3.95804 5.32657 5.00291 4.26485 6.36608 3.70938C8.40737 2.88672 13.2511 3.07657 15.5069 3.07657C17.7627 3.07657 22.6134 2.89375 24.6478 3.70938C26.004 4.25782 27.0489 5.31954 27.5955 6.70469C28.4051 8.77891 28.2183 13.7008 28.2183 15.993C28.2183 18.2852 28.4051 23.2141 27.5955 25.2812Z" fill="#495ECA"/>
</svg>
