<svg width="36" height="37" viewBox="0 0 36 37" fill="none" xmlns="http://www.w3.org/2000/svg">
<path fill-rule="evenodd" clip-rule="evenodd" d="M10 0.5C4.47715 0.5 0 4.97715 0 10.5V26.5C0 32.0228 4.47715 36.5 10 36.5H26C31.5228 36.5 36 32.0228 36 26.5V10.5C36 4.97715 31.5228 0.5 26 0.5H10ZM12.7993 18.5C12.7993 15.6617 15.0524 13.3723 17.8457 13.3723C20.6389 13.3723 22.892 15.6617 22.892 18.5C22.892 21.3383 20.6389 23.6277 17.8457 23.6277C15.0524 23.6277 12.7993 21.3383 12.7993 18.5ZM14.5649 18.5C14.5649 20.3387 16.0406 21.8337 17.8457 21.8337C19.6507 21.8337 21.1264 20.3387 21.1264 18.5C21.1264 16.6613 19.6551 15.1663 17.8457 15.1663C16.0362 15.1663 14.5649 16.6613 14.5649 18.5ZM23.0984 14.3585C23.7484 14.3585 24.2755 13.8275 24.2755 13.1625C24.2755 12.502 23.7484 11.9665 23.0984 11.9665C22.4484 11.9665 21.9214 12.502 21.9214 13.1625C21.9214 13.823 22.444 14.3585 23.0984 14.3585ZM26.0279 10.1858C27.1829 11.3551 27.5431 12.7742 27.6178 14.3764C27.71 16.0276 27.71 20.9724 27.6178 22.6236C27.5387 24.2258 27.1786 25.6449 26.0279 26.8142C24.8772 27.9879 23.4805 28.3538 21.9038 28.4297C20.2788 28.5234 15.4081 28.5234 13.7831 28.4297C12.2064 28.3494 10.8141 27.9834 9.65906 26.8142C8.50398 25.6449 8.14384 24.2258 8.06917 22.6236C7.97694 20.9724 7.97694 16.0232 8.06917 14.3719C8.14823 12.7698 8.50398 11.3506 9.65906 10.1814C10.8141 9.0121 12.2108 8.64616 13.7831 8.57029C15.4081 8.47657 20.2788 8.47657 21.9038 8.57029C23.4805 8.65062 24.8772 9.01657 26.0279 10.1858ZM23.6474 26.2965C24.5126 25.9439 25.1758 25.2701 25.5184 24.3953C25.9591 23.27 25.9346 20.8083 25.9187 19.2126C25.9161 18.9479 25.9137 18.707 25.9137 18.5C25.9137 18.293 25.9161 18.0521 25.9187 17.7875C25.9346 16.1926 25.9591 13.7338 25.5184 12.6047C25.1714 11.7255 24.5082 11.0516 23.6474 10.7035C22.5364 10.2581 20.1021 10.2818 18.5321 10.2971C18.2775 10.2996 18.0455 10.3019 17.8457 10.3019C17.6419 10.3019 17.4049 10.2994 17.1445 10.2967C15.5749 10.2806 13.1551 10.2557 12.0439 10.7035C11.1787 11.0561 10.5155 11.7299 10.1729 12.6047C9.73456 13.7336 9.75792 16.2072 9.77297 17.8024C9.77542 18.0612 9.77764 18.2969 9.77764 18.5C9.77764 18.707 9.77524 18.9479 9.7726 19.2125C9.7567 20.8074 9.73218 23.2662 10.1729 24.3953C10.5199 25.2745 11.1831 25.9484 12.0439 26.2965C13.1549 26.7419 15.5892 26.7182 17.1592 26.7029C17.4139 26.7004 17.6458 26.6981 17.8457 26.6981C18.0494 26.6981 18.2864 26.7006 18.5468 26.7033C20.1164 26.7194 22.5362 26.7443 23.6474 26.2965Z" fill="#495ECA"/>
</svg>
