<svg width="36" height="36" viewBox="0 0 36 36" fill="none" xmlns="http://www.w3.org/2000/svg">
<path fill-rule="evenodd" clip-rule="evenodd" d="M10 0C4.47715 0 0 4.47715 0 10V26C0 31.5228 4.47715 36 10 36H26C31.5228 36 36 31.5228 36 26V10C36 4.47715 31.5228 0 26 0H10ZM8.33036 28H12.4768V14.647H8.33036V28ZM8 10.4014C8 11.7273 9.07545 12.8256 10.4013 12.8256C11.7268 12.8256 12.8027 11.7273 12.8027 10.4014C12.8027 9.7645 12.5497 9.1537 12.0993 8.70335C11.649 8.253 11.0382 8 10.4013 8C9.76446 8 9.15367 8.253 8.70334 8.70335C8.253 9.1537 8 9.7645 8 10.4014ZM23.858 28H27.9955H28V20.665C28 17.0756 27.2286 14.3122 23.0321 14.3122C21.0147 14.3122 19.6625 15.4194 19.1089 16.4685H19.0509V14.647H15.0741V28H19.2161V21.3882C19.2161 19.6471 19.5464 17.9641 21.7022 17.9641C23.8268 17.9641 23.858 19.9507 23.858 21.4999V28Z" fill="#495ECA"/>
</svg>
