<svg width="30" height="30" viewBox="0 0 30 30" fill="none" xmlns="http://www.w3.org/2000/svg">
<path d="M6.63503 29.7652H0.64056V10.4953H6.63503V29.7652ZM3.63457 7.86671C1.71773 7.86671 0.162964 6.28182 0.162964 4.36836C0.162964 3.44925 0.528721 2.56779 1.17977 1.91788C1.83083 1.26798 2.71384 0.902863 3.63457 0.902863C4.5553 0.902863 5.43831 1.26798 6.08937 1.91788C6.74042 2.56779 7.10618 3.44925 7.10618 4.36836C7.10618 6.28182 5.55076 7.86671 3.63457 7.86671ZM29.0704 29.7652H23.0889V20.3848C23.0889 18.1492 23.0437 15.2822 19.9722 15.2822C16.8556 15.2822 16.378 17.7111 16.378 20.2237V29.7652H10.39V10.4953H16.1392V13.1239H16.2231C17.0234 11.6099 18.9783 10.0121 21.8949 10.0121C27.9616 10.0121 29.0769 14.0001 29.0769 19.18V29.7652H29.0704Z" fill="#495ECA"/>
</svg>
