<svg width="36" height="36" viewBox="0 0 36 36" fill="none" xmlns="http://www.w3.org/2000/svg">
<path fill-rule="evenodd" clip-rule="evenodd" d="M10 0C4.47715 0 0 4.47715 0 10V26C0 31.5228 4.47715 36 10 36H26C31.5228 36 36 31.5228 36 26V10C36 4.47715 31.5228 0 26 0H10ZM10 15.1768C10 10.7409 14.0633 8 18.1746 8C21.9493 8 25.3875 10.5966 25.3875 14.5757C25.3875 18.3144 23.476 22.4618 19.2205 22.4618C18.2107 22.4618 16.9364 21.9569 16.4435 21.0192C16.3231 21.4959 16.2199 21.9192 16.1267 22.3012C15.5126 24.8188 15.3359 25.5429 13.5824 27.9436C13.4758 27.9825 13.4416 28.0057 13.4153 27.9988C13.3903 27.9921 13.3725 27.9579 13.3059 27.8835C13.2875 27.6908 13.2669 27.4989 13.2462 27.3074C13.1857 26.7461 13.1256 26.1881 13.1256 25.6234C13.1256 23.7705 13.7707 21.2929 14.3246 19.1658C14.5038 18.4777 14.6734 17.8263 14.8086 17.2445C14.508 16.6314 14.4239 15.8861 14.4239 15.2129C14.4239 12.0072 18.1866 11.5263 18.1866 14.179C18.1866 14.9665 17.918 15.7296 17.6515 16.4867C17.3891 17.2321 17.1287 17.9717 17.1287 18.7231C17.1287 19.757 17.9822 20.4783 18.98 20.4783C21.745 20.4783 22.5985 16.4871 22.5985 14.3593C22.5985 11.5103 20.5789 9.9595 17.85 9.9595C14.6763 9.9595 12.224 12.2436 12.224 15.4653C12.224 16.506 12.6516 17.2056 12.933 17.6658C13.0709 17.8915 13.1737 18.0596 13.1737 18.1822C13.1737 18.4947 12.9453 19.6007 12.5485 19.6007C11.5868 19.6007 10 17.9978 10 15.1768Z" fill="#495ECA"/>
</svg>
