<svg width="36" height="37" viewBox="0 0 36 37" fill="none" xmlns="http://www.w3.org/2000/svg">
<path fill-rule="evenodd" clip-rule="evenodd" d="M10 0.5C4.47715 0.5 0 4.97715 0 10.5V26.5C0 32.0228 4.47715 36.5 10 36.5H26C31.5228 36.5 36 32.0228 36 26.5V10.5C36 4.97715 31.5228 0.5 26 0.5H10ZM25.9569 15.1596C25.9569 14.9789 25.9569 14.7982 25.9442 14.6175C26.7437 14.0237 27.4417 13.288 28 12.462C27.264 12.7846 26.4645 13.017 25.6396 13.1073C26.4898 12.5911 27.137 11.7779 27.4416 10.8098C26.6548 11.2874 25.7665 11.6359 24.8401 11.8166C24.0914 11.0034 23.0254 10.5 21.8452 10.5C19.5736 10.5 17.7462 12.3716 17.7462 14.6692C17.7462 14.9919 17.7843 15.3145 17.8477 15.6243C14.4467 15.4436 11.4137 13.7914 9.3959 11.2615C9.04055 11.8811 8.83754 12.591 8.83754 13.3655C8.83754 14.8111 9.56087 16.089 10.6649 16.8376C9.99239 16.8118 9.35782 16.6182 8.81215 16.3084V16.36C8.81215 18.3865 10.2208 20.0645 12.099 20.4518C11.7564 20.5421 11.3883 20.5937 11.0203 20.5937C10.7538 20.5937 10.5 20.5679 10.2462 20.5292C10.7665 22.1814 12.2767 23.3818 14.0787 23.4205C12.6701 24.5435 10.9061 25.2018 8.98985 25.2018C8.64719 25.2018 8.32996 25.1889 8 25.1502C9.81473 26.3376 11.9721 27.0217 14.2944 27.0217C21.8326 27.0217 25.9569 20.6712 25.9569 15.1596Z" fill="#495ECA"/>
</svg>
