<svg width="34" height="27" viewBox="0 0 34 27" fill="none" xmlns="http://www.w3.org/2000/svg">
<path d="M30.0096 6.67676C30.0305 6.96977 30.0305 7.26285 30.0305 7.55586C30.0305 16.4931 23.2282 26.7909 10.7955 26.7909C6.96526 26.7909 3.40712 25.6815 0.414062 23.756C0.958272 23.8188 1.48148 23.8397 2.04663 23.8397C5.20706 23.8397 8.11643 22.7723 10.4397 20.9513C7.46759 20.8885 4.97687 18.942 4.11871 16.2629C4.53735 16.3256 4.95593 16.3675 5.39551 16.3675C6.00247 16.3675 6.6095 16.2838 7.17458 16.1373C4.07689 15.5094 1.75355 12.7884 1.75355 9.50238V9.41868C2.65352 9.92102 3.70013 10.235 4.80936 10.2768C2.98841 9.06279 1.79543 6.99071 1.79543 4.64649C1.79543 3.3907 2.13025 2.23953 2.71634 1.23486C6.04428 5.33721 11.0467 8.01625 16.656 8.30933C16.5513 7.807 16.4885 7.28379 16.4885 6.76052C16.4885 3.03487 19.5025 0 23.249 0C25.1955 0 26.9537 0.816282 28.1886 2.1349C29.7165 1.84189 31.1816 1.27674 32.4793 0.502333C31.9769 2.07215 30.9095 3.39076 29.5072 4.22792C30.8677 4.08148 32.1863 3.70465 33.4002 3.18144C32.4795 4.52093 31.3282 5.71391 30.0096 6.67676V6.67676Z" fill="#495ECA"/>
</svg>
