<svg width="36" height="36" viewBox="0 0 36 36" fill="none" xmlns="http://www.w3.org/2000/svg">
<path fill-rule="evenodd" clip-rule="evenodd" d="M10 0C4.47715 0 0 4.47715 0 10V26C0 31.5228 4.47715 36 10 36H26C31.5228 36 36 31.5228 36 26V10C36 4.47715 31.5228 0 26 0H10ZM17.9955 8C20.6429 8 23.1339 9.03125 25.0045 10.9062C26.875 12.7812 28 15.2679 28 17.9152C28 23.3795 23.4554 27.8259 17.9955 27.8259H17.9911C16.3304 27.8259 14.7009 27.4107 13.2545 26.6205L8 28L9.40625 22.8661C8.54018 21.3616 8.08482 19.6562 8.08482 17.9107C8.08482 12.4464 12.5312 8 17.9955 8ZM13.7991 25.0089C15.0625 25.7589 16.5134 26.1563 17.9955 26.1563C22.5357 26.1563 26.3259 22.4598 26.3259 17.9152C26.3304 15.7143 25.375 13.6473 23.8214 12.0893C22.2679 10.5312 20.2009 9.67411 18 9.67411C13.4554 9.67411 9.75893 13.3705 9.75893 17.9107C9.75893 19.4688 10.192 20.9821 11.0179 22.2946L11.2143 22.6071L10.3839 25.6473L13.5 24.8304L13.7991 25.0089ZM20.8214 19.183C21.0491 19.2634 22.2679 19.8616 22.5134 19.9866C22.5536 20.0063 22.5917 20.0245 22.6274 20.0416C22.8102 20.1289 22.9336 20.1879 22.9821 20.2812C23.0446 20.3839 23.0446 20.8795 22.8393 21.4598C22.6339 22.0402 21.6473 22.567 21.1696 22.6384C20.3839 22.7545 19.7679 22.6964 18.1964 22.0179C15.8809 21.016 14.3164 18.7792 14.0111 18.3428C13.9886 18.3106 13.9729 18.2882 13.9643 18.2768C13.9612 18.2725 13.9575 18.2675 13.9534 18.2619C13.7982 18.0504 12.9554 16.9014 12.9554 15.7143C12.9554 14.5757 13.5125 13.9787 13.7715 13.7013C13.7897 13.6817 13.8065 13.6638 13.8214 13.6473C14.0491 13.4018 14.317 13.3393 14.4821 13.3393C14.6473 13.3393 14.8125 13.3393 14.9554 13.3482C14.9738 13.3493 14.993 13.3493 15.0129 13.3492C15.1569 13.349 15.3369 13.3487 15.5134 13.7723C15.5741 13.9187 15.66 14.1282 15.7527 14.3539C15.9737 14.8924 16.2327 15.5235 16.2768 15.6116C16.3393 15.7366 16.3795 15.8795 16.2991 16.0446C16.0887 16.4656 15.8711 16.6931 15.7168 16.8545C15.5242 17.056 15.4301 17.1544 15.5714 17.3973C16.5312 19.0446 17.4866 19.6161 18.942 20.3438C19.1875 20.4688 19.3348 20.4464 19.4777 20.2812C19.625 20.1116 20.0982 19.558 20.2634 19.308C20.4286 19.058 20.5938 19.0982 20.8214 19.183Z" fill="currentColor"/>
</svg>
