<svg width="36" height="37" viewBox="0 0 36 37" fill="none" xmlns="http://www.w3.org/2000/svg">
<path fill-rule="evenodd" clip-rule="evenodd" d="M10 0.5C4.47715 0.5 0 4.97715 0 10.5V26.5C0 32.0228 4.47715 36.5 10 36.5H26C31.5228 36.5 36 32.0228 36 26.5V10.5C36 4.97715 31.5228 0.5 26 0.5H10ZM26.5953 11.9487C27.5418 12.1956 28.2873 12.9232 28.5403 13.847C29 15.5215 29 19.0152 29 19.0152C29 19.0152 29 22.5088 28.5403 24.1833C28.2873 25.1071 27.5418 25.8044 26.5953 26.0513C24.8796 26.5 18 26.5 18 26.5C18 26.5 11.1204 26.5 9.40474 26.0513C8.45821 25.8044 7.71273 25.1071 7.45971 24.1833C7 22.5088 7 19.0152 7 19.0152C7 19.0152 7 15.5215 7.45971 13.847C7.71273 12.9232 8.45821 12.1956 9.40474 11.9487C11.1204 11.5 18 11.5 18 11.5C18 11.5 24.8796 11.5 26.5953 11.9487ZM21.5 19.0152L15.75 15.8432V22.1871L21.5 19.0152Z" fill="#495ECA"/>
</svg>
