<svg width="36" height="25" viewBox="0 0 36 25" fill="none" xmlns="http://www.w3.org/2000/svg">
<path d="M34.3913 3.89647C33.9873 2.37279 32.7971 1.17278 31.2859 0.765545C28.5466 0.0255432 17.5626 0.0255432 17.5626 0.0255432C17.5626 0.0255432 6.57871 0.0255432 3.83942 0.765545C2.32818 1.17285 1.13795 2.37279 0.733977 3.89647C0 6.65824 0 12.4204 0 12.4204C0 12.4204 0 18.1826 0.733977 20.9443C1.13795 22.468 2.32818 23.618 3.83942 24.0253C6.57871 24.7653 17.5626 24.7653 17.5626 24.7653C17.5626 24.7653 28.5466 24.7653 31.2859 24.0253C32.7971 23.618 33.9873 22.468 34.3913 20.9443C35.1253 18.1826 35.1253 12.4204 35.1253 12.4204C35.1253 12.4204 35.1253 6.65824 34.3913 3.89647V3.89647ZM13.9703 17.652V7.18879L23.1507 12.4205L13.9703 17.652V17.652Z" fill="#495ECA"/>
</svg>
